<svg xmlns="http://www.w3.org/2000/svg" width="35" height="30.046" viewBox="0 0 35 30.046"><defs><style>.a{fill:#fff;}</style></defs><g transform="translate(0 -2.477)"><path class="a" d="M34.68,29.133,19.424,3.57a2.24,2.24,0,0,0-3.848,0L.32,29.133a2.242,2.242,0,0,0,1.925,3.39h30.51A2.242,2.242,0,0,0,34.68,29.133ZM17.5,31.183a2.123,2.123,0,1,1,2.123-2.124A2.123,2.123,0,0,1,17.5,31.183Zm2.115-7.974a1.683,1.683,0,0,1-1.68,1.575h-.87a1.683,1.683,0,0,1-1.68-1.575L14.6,11.1a1.684,1.684,0,0,1,1.68-1.793h2.446A1.684,1.684,0,0,1,20.4,11.1Z"/></g></svg>